<svg xmlns="http://www.w3.org/2000/svg" viewBox="0 0 280 280">
  <rect width="280" height="280" rx="44" fill="#2C2C2A"/>
  <rect x="22" y="22" width="62" height="62" rx="10" fill="#D3D1C7"/>
  <rect x="32" y="32" width="42" height="42" rx="6" fill="#2C2C2A"/>
  <rect x="42" y="42" width="22" height="22" rx="4" fill="#D3D1C7"/>
  <rect x="196" y="22" width="62" height="62" rx="10" fill="#D3D1C7"/>
  <rect x="206" y="32" width="42" height="42" rx="6" fill="#2C2C2A"/>
  <rect x="216" y="42" width="22" height="22" rx="4" fill="#D3D1C7"/>
  <rect x="22" y="196" width="62" height="62" rx="10" fill="#D3D1C7"/>
  <rect x="32" y="206" width="42" height="42" rx="6" fill="#2C2C2A"/>
  <rect x="42" y="216" width="22" height="22" rx="4" fill="#D3D1C7"/>
  <rect x="94" y="22" width="11" height="11" rx="2" fill="#888780"/>
  <rect x="110" y="22" width="11" height="11" rx="2" fill="#888780"/>
  <rect x="142" y="22" width="11" height="11" rx="2" fill="#888780"/>
  <rect x="174" y="22" width="11" height="11" rx="2" fill="#888780"/>
  <rect x="94" y="38" width="11" height="11" rx="2" fill="#888780"/>
  <rect x="158" y="38" width="11" height="11" rx="2" fill="#888780"/>
  <rect x="94" y="54" width="11" height="11" rx="2" fill="#888780"/>
  <rect x="126" y="54" width="11" height="11" rx="2" fill="#888780"/>
  <rect x="174" y="54" width="11" height="11" rx="2" fill="#888780"/>
  <rect x="110" y="70" width="11" height="11" rx="2" fill="#888780"/>
  <rect x="158" y="70" width="11" height="11" rx="2" fill="#888780"/>
  <rect x="196" y="94" width="11" height="11" rx="2" fill="#888780"/>
  <rect x="212" y="94" width="11" height="11" rx="2" fill="#888780"/>
  <rect x="228" y="94" width="11" height="11" rx="2" fill="#888780"/>
  <rect x="244" y="94" width="11" height="11" rx="2" fill="#888780"/>
  <rect x="196" y="110" width="11" height="11" rx="2" fill="#888780"/>
  <rect x="228" y="110" width="11" height="11" rx="2" fill="#888780"/>
  <rect x="196" y="126" width="11" height="11" rx="2" fill="#888780"/>
  <rect x="244" y="126" width="11" height="11" rx="2" fill="#888780"/>
  <rect x="212" y="142" width="11" height="11" rx="2" fill="#888780"/>
  <rect x="228" y="142" width="11" height="11" rx="2" fill="#888780"/>
  <rect x="196" y="158" width="11" height="11" rx="2" fill="#888780"/>
  <rect x="244" y="158" width="11" height="11" rx="2" fill="#888780"/>
  <rect x="196" y="174" width="11" height="11" rx="2" fill="#888780"/>
  <rect x="228" y="174" width="11" height="11" rx="2" fill="#888780"/>
  <rect x="244" y="174" width="11" height="11" rx="2" fill="#888780"/>
  <rect x="94" y="196" width="11" height="11" rx="2" fill="#888780"/>
  <rect x="110" y="196" width="11" height="11" rx="2" fill="#888780"/>
  <rect x="142" y="196" width="11" height="11" rx="2" fill="#888780"/>
  <rect x="174" y="196" width="11" height="11" rx="2" fill="#888780"/>
  <rect x="94" y="212" width="11" height="11" rx="2" fill="#888780"/>
  <rect x="158" y="212" width="11" height="11" rx="2" fill="#888780"/>
  <rect x="94" y="228" width="11" height="11" rx="2" fill="#888780"/>
  <rect x="126" y="228" width="11" height="11" rx="2" fill="#888780"/>
  <rect x="174" y="228" width="11" height="11" rx="2" fill="#888780"/>
  <rect x="110" y="244" width="11" height="11" rx="2" fill="#888780"/>
  <rect x="142" y="244" width="11" height="11" rx="2" fill="#888780"/>
  <path d="M 126 148 L 126 131 A 14 14 0 0 1 154 131 L 154 148" fill="none" stroke="#D3D1C7" stroke-width="10" stroke-linecap="round" stroke-linejoin="round"/>
  <rect x="114" y="148" width="52" height="42" rx="9" fill="#D3D1C7"/>
  <circle cx="140" cy="164" r="8" fill="#2C2C2A"/>
  <rect x="136" y="164" width="8" height="14" rx="4" fill="#2C2C2A"/>
</svg>
